<?xml version="1.0" encoding="utf-8"?>
<!-- Generator: Adobe Illustrator 26.0.3, SVG Export Plug-In . SVG Version: 6.00 Build 0)  -->
<svg version="1.1" id="Capa_1" xmlns="http://www.w3.org/2000/svg" xmlns:xlink="http://www.w3.org/1999/xlink" x="0px" y="0px"
	 viewBox="0 0 1018 348" style="enable-background:new 0 0 1018 348;" xml:space="preserve">
<style type="text/css">
	.st0{fill:#EE2369;}
</style>
<g>
	<g>
		<path class="st0" d="M772,119.8h-26.2c-1.1,0-2.1,0.4-2.8,1.2s-1.2,1.8-1.2,2.8V180c0.1,4.1-0.7,8.1-2.4,11.8
			c-1.6,3.3-4.2,5.9-7.4,7.6c-3.3,1.8-7.6,2.6-12.8,2.6c-4.3,0.2-8.6-0.8-12.5-2.7c-3.2-1.7-5.8-4.3-7.5-7.6
			c-1.8-3.7-2.6-7.7-2.5-11.7v-56.2c0-1.1-0.4-2.1-1.2-2.8c-0.8-0.8-1.8-1.2-2.8-1.2h-26.1c-1.1,0-2.1,0.4-2.8,1.2
			c-0.8,0.8-1.2,1.8-1.2,2.8v58.1c0,10.1,2.4,18.9,7.1,26.5c4.8,7.7,11.7,13.8,19.9,17.7c8.5,4.2,18.4,6.3,29.6,6.3
			c11.4,0,21.4-2.1,29.9-6.3c8.2-3.9,15-10,19.8-17.7c4.7-7.6,7-16.4,7-26.5v-58.1c0-0.5-0.1-1.1-0.3-1.5c-0.2-0.5-0.5-0.9-0.9-1.3
			c-0.4-0.4-0.8-0.7-1.3-0.9C773.1,119.9,772.5,119.8,772,119.8z"/>
		<path class="st0" d="M896.8,145.8c-5.5-8.2-13.3-14.6-23.2-19.1c-9.9-4.6-21.5-6.8-34.7-6.8h-43.2c-1.1,0-2.1,0.4-2.8,1.2
			s-1.2,1.8-1.2,2.8v102c0,1.1,0.4,2.1,1.2,2.8c0.8,0.8,1.8,1.2,2.8,1.2h43.2c13.2,0,24.8-2.3,34.7-6.8c9.4-4.1,17.4-10.8,23.2-19.2
			c5.5-8.3,8.3-17.9,8.3-29S902.3,154.1,896.8,145.8z M867,187.9c-2.4,3.8-5.9,6.8-10,8.6c-4.9,2.1-10.2,3.1-15.5,3h-12
			c-1.1,0-2.1-0.4-2.8-1.2c-0.8-0.8-1.2-1.8-1.2-2.8v-41.3c0-1.1,0.4-2.1,1.2-2.8c0.8-0.8,1.8-1.2,2.8-1.2h12
			c5.3-0.1,10.6,0.9,15.5,3c4.1,1.8,7.6,4.8,10,8.5c2.4,3.9,3.6,8.5,3.5,13.1C870.7,179.5,869.4,184,867,187.9L867,187.9z"/>
		<path class="st0" d="M326.7,194.1c-2.7,3.1-6.2,5.5-10,6.8c-4.7,1.6-9.6,2.4-14.5,2.3c-5.6,0.1-11.1-1-16.1-3.5
			c-4.4-2.2-8-5.6-10.4-9.8c-2.5-4.6-3.8-9.8-3.7-15.1c-0.1-5.3,1.1-10.5,3.7-15.2c2.4-4.2,6.1-7.6,10.4-9.8
			c5-2.4,10.6-3.5,16.1-3.4c5-0.1,9.9,0.7,14.5,2.4c3.9,1.5,7.3,3.8,10,6.9c1.7,2,3.1,4.2,4.1,6.7c0.4,1,1.1,1.8,2,2.2
			c0.9,0.4,2,0.5,3,0.2l24.3-7.9c0.5-0.2,1-0.5,1.4-0.8c0.4-0.4,0.8-0.8,1-1.3c0.2-0.5,0.4-1.1,0.4-1.6c0-0.6-0.1-1.1-0.3-1.6
			c-1.6-3.9-3.7-7.5-6.3-10.9c-5.8-7.6-13.5-13.5-22.3-17.2c-9.2-4.1-19.8-6.2-31.8-6.2c-12.9,0-24.2,2.4-33.9,7.2
			c-9.3,4.4-17.1,11.4-22.6,20.1c-5.4,8.6-8,18.7-8,30.2c0,11.5,2.7,21.6,8,30.2c5.5,8.7,13.3,15.7,22.6,20.1
			c9.7,4.8,21,7.2,33.9,7.2c11.9,0,22.5-2.1,31.8-6.2c8.8-3.8,16.5-9.7,22.3-17.3c2.5-3.3,4.6-7,6.3-10.8c0.2-0.5,0.3-1.1,0.3-1.6
			c0-0.6-0.1-1.1-0.4-1.6c-0.2-0.5-0.6-1-1-1.3c-0.4-0.4-0.9-0.7-1.4-0.8l-24.2-7.9c-1-0.3-2.1-0.3-3,0.2c-0.9,0.4-1.7,1.2-2,2.2
			C329.8,189.7,328.5,192,326.7,194.1z"/>
		<path class="st0" d="M541.5,150.2c-0.5,0-1-0.1-1.5-0.3c-0.5-0.2-0.9-0.5-1.2-1c-0.3-0.4-0.5-0.9-0.6-1.4c-0.1-0.5,0-1,0.2-1.5
			l7.6-23.6c0.3-0.8,0.7-1.4,1.4-1.9c0.7-0.5,1.4-0.7,2.3-0.7h99.8c1.1,0,2.1,0.4,2.8,1.2s1.2,1.8,1.2,2.8v22.4
			c0,1.1-0.4,2.1-1.2,2.8s-1.8,1.2-2.8,1.2h-32.8c-1.1,0-2.1,0.4-2.8,1.2c-0.8,0.8-1.2,1.8-1.2,2.8v63.1c0,0.9-0.3,1.8-0.8,2.5
			c-0.5,0.7-1.3,1.3-2.2,1.5l-25.6,8.3c-0.6,0.2-1.3,0.3-2,0.2c-0.7-0.1-1.3-0.4-1.8-0.8c-0.5-0.4-1-0.9-1.3-1.5
			c-0.3-0.6-0.5-1.3-0.5-1.9v-71.4c0-1.1-0.4-2.1-1.2-2.8c-0.8-0.8-1.8-1.2-2.8-1.2H541.5z"/>
		<path class="st0" d="M527.9,217.3c0,0.9-0.3,1.8-0.8,2.5c-0.5,0.7-1.3,1.3-2.1,1.6l-25.6,8.3c-0.6,0.2-1.3,0.3-2,0.2
			c-0.7-0.1-1.3-0.4-1.8-0.8c-0.5-0.4-1-0.9-1.3-1.5c-0.3-0.6-0.5-1.3-0.5-1.9V123.8c0-1.1,0.4-2.1,1.2-2.8s1.8-1.2,2.8-1.2h26.2
			c1.1,0,2.1,0.4,2.8,1.2s1.2,1.8,1.2,2.8V217.3z"/>
		<path class="st0" d="M371.3,150.2c-0.5,0-1-0.1-1.5-0.3s-0.9-0.5-1.2-1c-0.3-0.4-0.5-0.9-0.6-1.4c-0.1-0.5,0-1,0.2-1.5l7.6-23.6
			c0.3-0.8,0.7-1.4,1.4-1.9c0.7-0.5,1.4-0.7,2.3-0.7h99.8c1.1,0,2.1,0.4,2.8,1.2c0.8,0.8,1.2,1.8,1.2,2.8v22.4
			c0,1.1-0.4,2.1-1.2,2.8c-0.8,0.8-1.8,1.2-2.8,1.2h-32.8c-1.1,0-2.1,0.4-2.8,1.2c-0.8,0.8-1.2,1.8-1.2,2.8v63.1
			c0,0.9-0.3,1.8-0.8,2.5c-0.5,0.7-1.3,1.3-2.2,1.5l-25.6,8.3c-0.6,0.2-1.3,0.3-2,0.2c-0.7-0.1-1.3-0.4-1.8-0.8
			c-0.5-0.4-1-0.9-1.3-1.5c-0.3-0.6-0.5-1.3-0.5-1.9v-71.4c0-1.1-0.4-2.1-1.2-2.8c-0.8-0.8-1.8-1.2-2.8-1.2H371.3z"/>
		<path class="st0" d="M119.4,148.1c-0.5,0-1,0-1.4-0.2c-0.4-0.2-0.8-0.5-1.1-0.9c-0.3-0.4-0.5-0.9-0.5-1.3c-0.1-0.5,0-1,0.2-1.4
			l7.2-22.3c0.2-0.7,0.7-1.4,1.3-1.8c0.6-0.5,1.4-0.7,2.1-0.7h95.2c1.1,0,2.1,0.4,2.8,1.2c0.8,0.8,1.2,1.8,1.2,2.8v95.4
			c0,0.8-0.2,1.5-0.7,2.1c-0.4,0.6-1.1,1.1-1.8,1.3l-21.6,7c-0.5,0.2-1.1,0.2-1.7,0.1c-0.6-0.1-1.1-0.3-1.6-0.6
			c-0.5-0.3-0.8-0.8-1.1-1.3c-0.3-0.5-0.4-1.1-0.4-1.6l0.1-53.9c-12.2,4.2-23.2,11.4-31.9,20.9c-8.7,9.5-14.9,21.1-18.1,33.6
			c-0.2,0.9-0.7,1.6-1.4,2.2c-0.7,0.5-1.6,0.8-2.5,0.8h-22.6c-0.6,0-1.2-0.1-1.7-0.4c-0.5-0.2-1-0.6-1.4-1.1c-0.4-0.5-0.6-1-0.8-1.6
			c-0.2-0.6-0.2-1.2-0.1-1.7c3.2-16.5,10.2-32,20.5-45.4c10.3-13.3,23.5-24,38.7-31.3L119.4,148.1z"/>
	</g>
</g>
</svg>
