<svg width="1018" height="348" viewBox="0 0 1018 348" fill="none" xmlns="http://www.w3.org/2000/svg">
<rect width="1018" height="348" fill="#EE2369"/>
<g clip-path="url(#clip0_355_136)">
<path d="M772.011 119.809H745.847C744.782 119.809 743.761 120.232 743.008 120.985C742.255 121.738 741.832 122.759 741.832 123.823V180.027C741.947 184.098 741.119 188.141 739.413 191.839C737.825 195.095 735.222 197.748 731.997 199.397C728.651 201.163 724.396 202.046 719.23 202.046C714.91 202.199 710.62 201.263 706.755 199.326C703.545 197.637 700.934 194.998 699.278 191.769C697.517 188.112 696.66 184.084 696.779 180.027V123.823C696.779 122.759 696.356 121.738 695.603 120.985C694.851 120.232 693.83 119.809 692.765 119.809H666.63C665.566 119.809 664.544 120.232 663.792 120.985C663.039 121.738 662.616 122.759 662.616 123.823V181.883C662.616 191.96 664.988 200.792 669.732 208.379C674.557 216.032 681.45 222.163 689.613 226.063C698.124 230.272 708.006 232.376 719.261 232.376C730.709 232.376 740.688 230.272 749.199 226.063C757.356 222.178 764.234 216.043 769.021 208.379C773.704 200.792 776.046 191.96 776.046 181.883V123.823C776.046 123.295 775.941 122.771 775.738 122.282C775.535 121.794 775.238 121.351 774.863 120.978C774.488 120.605 774.043 120.309 773.554 120.109C773.065 119.908 772.54 119.806 772.011 119.809Z" fill="white"/>
<path d="M896.752 145.783C891.219 137.566 883.488 131.183 873.558 126.634C863.629 122.084 852.061 119.809 838.853 119.809H795.606C794.541 119.809 793.521 120.232 792.768 120.985C792.015 121.738 791.592 122.759 791.592 123.823V225.862C791.592 226.927 792.015 227.948 792.768 228.701C793.521 229.454 794.541 229.877 795.606 229.877H838.853C852.061 229.877 863.629 227.602 873.558 223.052C882.948 218.958 890.989 212.291 896.752 203.823C902.272 195.559 905.035 185.898 905.042 174.838C905.049 163.778 902.285 154.093 896.752 145.783ZM867.035 187.935C864.608 191.722 861.117 194.708 856.998 196.516C852.116 198.63 846.832 199.658 841.512 199.527H829.529C828.464 199.527 827.443 199.104 826.69 198.351C825.937 197.598 825.515 196.577 825.515 195.513V154.233C825.515 153.169 825.937 152.147 826.69 151.395C827.443 150.642 828.464 150.219 829.529 150.219H841.512C846.831 150.094 852.114 151.121 856.998 153.23C861.102 155.032 864.591 157.994 867.035 161.751C869.459 165.692 870.683 170.253 870.557 174.878C870.656 179.468 869.434 183.99 867.035 187.905V187.935Z" fill="white"/>
<path d="M326.731 194.067C324.03 197.17 320.573 199.521 316.695 200.892C312.022 202.5 307.102 203.272 302.162 203.17C296.585 203.317 291.053 202.134 286.024 199.718C281.667 197.558 278.041 194.166 275.596 189.963C273.052 185.336 271.788 180.115 271.933 174.838C271.793 169.542 273.056 164.303 275.596 159.653C278.014 155.426 281.647 152.024 286.024 149.888C291.067 147.521 296.593 146.366 302.162 146.515C307.115 146.407 312.044 147.227 316.695 148.934C320.552 150.385 323.997 152.755 326.731 155.839C328.444 157.825 329.817 160.08 330.795 162.513C331.164 163.48 331.892 164.267 332.827 164.71C333.762 165.153 334.832 165.219 335.813 164.892L360.122 157.013C360.653 156.841 361.143 156.56 361.56 156.187C361.977 155.815 362.311 155.359 362.541 154.85C362.772 154.341 362.894 153.789 362.899 153.23C362.904 152.671 362.792 152.117 362.57 151.604C360.938 147.722 358.821 144.063 356.268 140.715C350.42 133.161 342.74 127.227 333.957 123.472C324.717 119.364 314.125 117.31 302.182 117.31C289.269 117.31 277.968 119.709 268.279 124.506C259 128.927 251.164 135.886 245.678 144.578C240.325 153.19 237.649 163.266 237.649 174.808C237.649 186.35 240.325 196.429 245.678 205.047C251.164 213.739 259 220.699 268.279 225.12C277.961 229.917 289.262 232.316 302.182 232.316C314.125 232.316 324.717 230.258 333.957 226.143C342.757 222.384 350.441 216.422 356.268 208.831C358.788 205.5 360.891 201.874 362.53 198.032C362.753 197.518 362.867 196.963 362.862 196.403C362.858 195.843 362.737 195.29 362.506 194.779C362.276 194.269 361.941 193.813 361.523 193.439C361.106 193.066 360.614 192.784 360.081 192.612L335.834 184.754C334.848 184.429 333.775 184.498 332.839 184.947C331.904 185.396 331.178 186.19 330.815 187.162C329.849 189.676 328.469 192.01 326.731 194.067Z" fill="white"/>
<path d="M541.457 150.189C540.945 150.227 540.432 150.134 539.966 149.918C539.501 149.702 539.098 149.371 538.796 148.956C538.494 148.54 538.304 148.055 538.243 147.545C538.181 147.036 538.252 146.519 538.447 146.044L546.084 122.468C546.337 121.696 546.828 121.023 547.486 120.546C548.143 120.069 548.935 119.811 549.747 119.809H649.568C650.633 119.809 651.654 120.232 652.407 120.985C653.16 121.738 653.583 122.759 653.583 123.823V146.174C653.583 147.239 653.16 148.26 652.407 149.013C651.654 149.766 650.633 150.189 649.568 150.189H616.75C615.685 150.189 614.664 150.612 613.911 151.365C613.158 152.117 612.735 153.139 612.735 154.203V217.291C612.731 218.201 612.437 219.086 611.895 219.817C611.354 220.548 610.593 221.087 609.724 221.356L584.082 229.666C583.439 229.876 582.756 229.93 582.088 229.824C581.421 229.718 580.788 229.456 580.241 229.058C579.695 228.661 579.25 228.139 578.944 227.536C578.638 226.934 578.48 226.267 578.481 225.591V154.203C578.481 153.139 578.058 152.117 577.306 151.365C576.553 150.612 575.531 150.189 574.467 150.189H541.457Z" fill="white"/>
<path d="M527.868 217.291C527.867 218.195 527.58 219.075 527.048 219.805C526.517 220.535 525.767 221.078 524.907 221.356L499.265 229.666C498.622 229.876 497.939 229.93 497.271 229.824C496.604 229.718 495.971 229.456 495.424 229.058C494.878 228.661 494.433 228.139 494.127 227.536C493.821 226.934 493.663 226.267 493.664 225.591V123.823C493.664 122.759 494.087 121.738 494.84 120.985C495.593 120.232 496.614 119.809 497.679 119.809H523.854C524.918 119.809 525.939 120.232 526.692 120.985C527.445 121.738 527.868 122.759 527.868 123.823V217.291Z" fill="white"/>
<path d="M371.322 150.189C370.81 150.227 370.297 150.134 369.831 149.918C369.365 149.702 368.962 149.371 368.661 148.956C368.359 148.54 368.169 148.055 368.107 147.545C368.046 147.036 368.116 146.519 368.311 146.044L375.949 122.468C376.202 121.696 376.692 121.023 377.35 120.546C378.008 120.069 378.799 119.811 379.612 119.809H479.383C480.447 119.809 481.469 120.232 482.221 120.985C482.974 121.738 483.397 122.759 483.397 123.823V146.174C483.397 147.239 482.974 148.26 482.221 149.013C481.469 149.766 480.447 150.189 479.383 150.189H446.614C445.55 150.189 444.528 150.612 443.776 151.365C443.023 152.117 442.6 153.139 442.6 154.203V217.291C442.596 218.201 442.301 219.086 441.76 219.817C441.218 220.548 440.458 221.087 439.589 221.356L413.946 229.666C413.303 229.876 412.62 229.93 411.953 229.824C411.285 229.718 410.652 229.456 410.106 229.058C409.559 228.661 409.115 228.139 408.809 227.536C408.503 226.934 408.344 226.267 408.346 225.591V154.203C408.346 153.139 407.923 152.117 407.17 151.365C406.417 150.612 405.396 150.189 404.331 150.189H371.322Z" fill="white"/>
<path d="M119.352 148.071C118.865 148.116 118.374 148.034 117.928 147.832C117.483 147.63 117.097 147.316 116.81 146.92C116.522 146.525 116.342 146.061 116.288 145.574C116.234 145.088 116.308 144.596 116.502 144.147L123.728 121.836C123.966 121.103 124.43 120.464 125.054 120.011C125.678 119.559 126.429 119.316 127.2 119.317H222.365C223.429 119.317 224.45 119.74 225.203 120.493C225.956 121.246 226.379 122.267 226.379 123.332V218.777C226.38 219.539 226.14 220.281 225.693 220.898C225.246 221.515 224.615 221.974 223.89 222.209L202.272 229.235C201.731 229.411 201.156 229.456 200.594 229.367C200.033 229.278 199.5 229.057 199.041 228.722C198.581 228.387 198.208 227.947 197.951 227.44C197.695 226.932 197.562 226.371 197.565 225.802L197.665 171.877C185.455 176.073 174.489 183.256 165.765 192.772C157.041 202.289 150.836 213.837 147.714 226.364C147.492 227.226 146.99 227.989 146.287 228.534C145.584 229.078 144.72 229.375 143.83 229.375H121.259C120.67 229.376 120.088 229.247 119.554 228.998C119.021 228.749 118.549 228.385 118.171 227.933C117.794 227.481 117.521 226.952 117.371 226.382C117.221 225.813 117.198 225.217 117.304 224.638C120.496 208.127 127.516 192.594 137.8 179.288C148.084 165.981 161.345 155.272 176.519 148.021L119.352 148.071Z" fill="white"/>
</g>
<defs>
<clipPath id="clip0_355_136">
<rect width="788.732" height="115.066" fill="white" transform="translate(116.31 117.31)"/>
</clipPath>
</defs>
</svg>
