<svg width="350" height="350" viewBox="0 0 350 350" fill="none" xmlns="http://www.w3.org/2000/svg">
<path d="M119.974 147.72C119.477 147.766 118.976 147.682 118.52 147.476C118.065 147.27 117.671 146.949 117.377 146.544C117.084 146.14 116.9 145.666 116.845 145.169C116.79 144.672 116.865 144.17 117.063 143.711L124.445 120.919C124.688 120.17 125.162 119.517 125.8 119.054C126.437 118.592 127.205 118.344 127.992 118.345H225.21C226.298 118.345 227.341 118.777 228.11 119.546C228.879 120.316 229.312 121.359 229.312 122.446V219.951C229.313 220.73 229.067 221.488 228.61 222.118C228.154 222.748 227.509 223.217 226.769 223.458L204.684 230.635C204.132 230.815 203.544 230.862 202.97 230.771C202.397 230.68 201.853 230.453 201.383 230.111C200.914 229.769 200.532 229.32 200.27 228.801C200.008 228.283 199.873 227.71 199.875 227.129L199.978 172.04C187.505 176.326 176.302 183.664 167.389 193.386C158.477 203.108 152.138 214.905 148.949 227.703C148.722 228.583 148.209 229.362 147.491 229.919C146.773 230.475 145.89 230.778 144.981 230.779H121.923C121.321 230.779 120.726 230.648 120.181 230.393C119.636 230.139 119.154 229.767 118.769 229.305C118.383 228.844 118.104 228.303 117.951 227.721C117.798 227.139 117.775 226.531 117.883 225.939C121.144 209.071 128.315 193.204 138.821 179.61C149.327 166.017 162.874 155.076 178.375 147.669L119.974 147.72Z" fill="black"/>
</svg>
